<svg width="24" height="24" viewBox="0 0 24 24" fill="none" xmlns="http://www.w3.org/2000/svg">
<path fill-rule="evenodd" clip-rule="evenodd" d="M16.5144 5.6913C16.6849 5.97544 16.5928 6.344 16.3087 6.51449L8.45238 11.2282C7.86978 11.5778 7.86978 12.4222 8.45238 12.7717L16.3087 17.4855C16.5928 17.656 16.6849 18.0245 16.5144 18.3087C16.344 18.5928 15.9754 18.685 15.6913 18.5145L7.83499 13.8007C6.47558 12.9851 6.47558 11.0149 7.83499 10.1993L15.6913 5.4855C15.9754 5.31501 16.344 5.40715 16.5144 5.6913Z" fill="#949494"/>
<path fill-rule="evenodd" clip-rule="evenodd" d="M19 6C19 7.65685 17.6569 9 16 9C14.3431 9 13 7.65685 13 6C13 4.34315 14.3431 3 16 3C17.6569 3 19 4.34315 19 6ZM19 18C19 19.6569 17.6569 21 16 21C14.3431 21 13 19.6569 13 18C13 16.3431 14.3431 15 16 15C17.6569 15 19 16.3431 19 18ZM6 15C7.65685 15 9 13.6569 9 12C9 10.3431 7.65685 9 6 9C4.34315 9 3 10.3431 3 12C3 13.6569 4.34315 15 6 15Z" fill="white"/>
<path fill-rule="evenodd" clip-rule="evenodd" d="M16 7.8C16.9941 7.8 17.8 6.99411 17.8 6C17.8 5.00589 16.9941 4.2 16 4.2C15.0059 4.2 14.2 5.00589 14.2 6C14.2 6.99411 15.0059 7.8 16 7.8ZM16 9C17.6569 9 19 7.65685 19 6C19 4.34315 17.6569 3 16 3C14.3431 3 13 4.34315 13 6C13 7.65685 14.3431 9 16 9ZM16 19.8C16.9941 19.8 17.8 18.9941 17.8 18C17.8 17.0059 16.9941 16.2 16 16.2C15.0059 16.2 14.2 17.0059 14.2 18C14.2 18.9941 15.0059 19.8 16 19.8ZM16 21C17.6569 21 19 19.6569 19 18C19 16.3431 17.6569 15 16 15C14.3431 15 13 16.3431 13 18C13 19.6569 14.3431 21 16 21ZM7.8 12C7.8 12.9941 6.99411 13.8 6 13.8C5.00589 13.8 4.2 12.9941 4.2 12C4.2 11.0059 5.00589 10.2 6 10.2C6.99411 10.2 7.8 11.0059 7.8 12ZM9 12C9 13.6569 7.65685 15 6 15C4.34315 15 3 13.6569 3 12C3 10.3431 4.34315 9 6 9C7.65685 9 9 10.3431 9 12Z" fill="#949494"/>
</svg>
