<svg width="25" height="25" viewBox="0 0 25 25" fill="none" xmlns="http://www.w3.org/2000/svg">
<path fill-rule="evenodd" clip-rule="evenodd" d="M16.7146 6.09132C16.8851 6.37547 16.793 6.74402 16.5088 6.91451L8.65258 11.6283C8.06997 11.9778 8.06997 12.8222 8.65258 13.1718L16.5088 17.8855C16.793 18.056 16.8851 18.4246 16.7146 18.7087C16.5442 18.9929 16.1756 19.085 15.8915 18.9145L8.03518 14.2008C6.67577 13.3851 6.67577 11.4149 8.03518 10.5993L15.8915 5.88552C16.1756 5.71503 16.5442 5.80717 16.7146 6.09132Z" fill="#222222"/>
<path fill-rule="evenodd" clip-rule="evenodd" d="M19.2002 6.40002C19.2002 8.05688 17.857 9.40002 16.2002 9.40002C14.5433 9.40002 13.2002 8.05688 13.2002 6.40002C13.2002 4.74317 14.5433 3.40002 16.2002 3.40002C17.857 3.40002 19.2002 4.74317 19.2002 6.40002ZM19.2002 18.4C19.2002 20.0569 17.857 21.4 16.2002 21.4C14.5433 21.4 13.2002 20.0569 13.2002 18.4C13.2002 16.7432 14.5433 15.4 16.2002 15.4C17.857 15.4 19.2002 16.7432 19.2002 18.4ZM6.2002 15.4C7.85705 15.4 9.2002 14.0569 9.2002 12.4C9.2002 10.7432 7.85705 9.40002 6.2002 9.40002C4.54334 9.40002 3.2002 10.7432 3.2002 12.4C3.2002 14.0569 4.54334 15.4 6.2002 15.4Z" fill="#70EBA5"/>
<path fill-rule="evenodd" clip-rule="evenodd" d="M16.2002 8.20002C17.1943 8.20002 18.0002 7.39414 18.0002 6.40002C18.0002 5.40591 17.1943 4.60002 16.2002 4.60002C15.2061 4.60002 14.4002 5.40591 14.4002 6.40002C14.4002 7.39414 15.2061 8.20002 16.2002 8.20002ZM16.2002 9.40002C17.857 9.40002 19.2002 8.05688 19.2002 6.40002C19.2002 4.74317 17.857 3.40002 16.2002 3.40002C14.5433 3.40002 13.2002 4.74317 13.2002 6.40002C13.2002 8.05688 14.5433 9.40002 16.2002 9.40002ZM16.2002 20.2C17.1943 20.2 18.0002 19.3941 18.0002 18.4C18.0002 17.4059 17.1943 16.6 16.2002 16.6C15.2061 16.6 14.4002 17.4059 14.4002 18.4C14.4002 19.3941 15.2061 20.2 16.2002 20.2ZM16.2002 21.4C17.857 21.4 19.2002 20.0569 19.2002 18.4C19.2002 16.7432 17.857 15.4 16.2002 15.4C14.5433 15.4 13.2002 16.7432 13.2002 18.4C13.2002 20.0569 14.5433 21.4 16.2002 21.4ZM8.0002 12.4C8.0002 13.3941 7.19431 14.2 6.2002 14.2C5.20608 14.2 4.4002 13.3941 4.4002 12.4C4.4002 11.4059 5.20608 10.6 6.2002 10.6C7.19431 10.6 8.0002 11.4059 8.0002 12.4ZM9.2002 12.4C9.2002 14.0569 7.85705 15.4 6.2002 15.4C4.54334 15.4 3.2002 14.0569 3.2002 12.4C3.2002 10.7432 4.54334 9.40002 6.2002 9.40002C7.85705 9.40002 9.2002 10.7432 9.2002 12.4Z" fill="#222222"/>
</svg>
