<svg width="24" height="24" viewBox="0 0 24 24" fill="none" xmlns="http://www.w3.org/2000/svg">
<path fill-rule="evenodd" clip-rule="evenodd" d="M18.1079 4.2H5.89185C5.46727 4.2 5.11664 4.53169 5.09309 4.95562L4.31531 18.9556C4.28983 19.4142 4.65481 19.8 5.11408 19.8H18.8857C19.345 19.8 19.7099 19.4142 19.6845 18.9556L18.9067 4.95562C18.8831 4.53169 18.5325 4.2 18.1079 4.2ZM5.89185 3C4.83039 3 3.95381 3.82923 3.89493 4.88906L3.11716 18.8891C3.05347 20.0355 3.96591 21 5.11408 21H18.8857C20.0339 21 20.9463 20.0355 20.8826 18.8891L20.1048 4.88906C20.0459 3.82923 19.1694 3 18.1079 3H5.89185Z" fill="#222222"/>
<path fill-rule="evenodd" clip-rule="evenodd" d="M8.3998 6.89999C8.73118 6.89999 8.9998 7.16862 8.9998 7.49999C8.9998 9.15685 10.3429 10.5 11.9998 10.5C13.6567 10.5 14.9998 9.15685 14.9998 7.49999C14.9998 7.16862 15.2684 6.89999 15.5998 6.89999C15.9312 6.89999 16.1998 7.16862 16.1998 7.49999C16.1998 9.81959 14.3194 11.7 11.9998 11.7C9.68021 11.7 7.7998 9.81959 7.7998 7.49999C7.7998 7.16862 8.06843 6.89999 8.3998 6.89999Z" fill="#222222"/>
</svg>
