<svg width="20" height="20" viewBox="0 0 20 20" fill="none" xmlns="http://www.w3.org/2000/svg">
<path fill-rule="evenodd" clip-rule="evenodd" d="M15.5195 9.80157L15.5179 9.80487C14.7169 10.9003 12.8124 12.816 10.0082 15.348L9.9203 15.4282L9.83324 15.3456C9.68482 15.2059 9.50324 15.0358 9.29678 14.8441L9.27523 14.8235C7.89635 13.5372 5.33014 11.144 4.3219 9.80653C3.66107 8.89451 3.43222 7.69748 3.72408 6.68055C3.9662 5.7644 4.65273 5.00934 5.60542 4.61033C5.96029 4.47733 6.34585 4.41042 6.75296 4.41042C8.38058 4.41042 9.26776 6.01058 9.42945 6.33193C9.50656 6.5112 9.69809 6.62272 9.91947 6.62272C10.14 6.62272 10.3307 6.51368 10.4037 6.3435C10.708 5.69253 12.4873 3.6884 14.7269 4.60703C15.5212 4.95152 16.0701 5.54714 16.3147 6.32946C16.6182 7.43561 16.313 8.76481 15.5195 9.80157" fill="#18A957"/>
<path fill-rule="evenodd" clip-rule="evenodd" d="M15.5196 9.80191L15.518 9.80521C14.717 10.9006 12.8125 12.8164 10.0083 15.3484L9.92041 15.4285L9.83335 15.3459C9.68493 15.2063 9.50335 15.0361 9.29689 14.8444L9.27533 14.8238C7.89646 13.5376 5.33025 11.1443 4.32201 9.80687C3.66118 8.89485 3.43233 7.69782 3.72419 6.68089C3.9663 5.76474 4.65284 5.00968 5.60553 4.61068C5.9604 4.47767 6.34596 4.41076 6.75307 4.41076C8.38068 4.41076 9.26787 6.01092 9.42955 6.33227C9.50666 6.51154 9.6982 6.62306 9.91958 6.62306C10.1401 6.62306 10.3308 6.51402 10.4038 6.34384C10.7081 5.69287 12.4874 3.68874 14.727 4.60737C15.5213 4.95186 16.0702 5.54748 16.3148 6.3298C16.6183 7.43595 16.3131 8.76515 15.5196 9.80191M17.3438 6.06462L17.3413 6.05635C16.9914 4.91385 16.2393 4.09932 15.1076 3.63752C12.4758 2.61398 10.5522 4.45454 10.0257 5.04355L9.9229 5.15838L9.82755 5.03612C8.9926 3.9407 7.87159 3.33847 6.67099 3.33847C6.17682 3.33847 5.67601 3.43926 5.18184 3.63835C3.92568 4.13897 3.00118 5.15177 2.64548 6.41736C2.2906 7.77961 2.59407 9.28725 3.45639 10.4496C4.32865 11.6069 6.29041 13.5665 9.28612 16.2736L9.46107 16.4314C9.50501 16.471 9.53238 16.4967 9.54233 16.5066C9.6526 16.6164 9.81512 16.6668 9.91959 16.6668C10.0282 16.6668 10.1833 16.614 10.2877 16.5627L10.3118 16.5429C10.3118 16.5413 10.3657 16.4925 10.4536 16.4124L10.5473 16.3273C13.5438 13.621 15.508 11.6582 16.3853 10.4942C17.3778 9.09146 17.7368 7.4343 17.3438 6.06462" fill="#222222"/>
</svg>
