<svg width="24" height="24" viewBox="0 0 24 24" fill="none" xmlns="http://www.w3.org/2000/svg">
<path fill-rule="evenodd" clip-rule="evenodd" d="M18.6236 11.7621L18.6216 11.7661C17.6604 13.0806 15.375 15.3794 12.01 18.4178L11.9045 18.514L11.8 18.4149C11.6219 18.2473 11.404 18.0431 11.1563 17.8131L11.1304 17.7884C9.47575 16.2449 6.3963 13.373 5.18641 11.768C4.39341 10.6736 4.1188 9.23719 4.46903 8.01687C4.75956 6.9175 5.5834 6.01142 6.72663 5.53261C7.15248 5.37301 7.61515 5.29271 8.10368 5.29271C10.0568 5.29271 11.1214 7.21291 11.3155 7.59853C11.408 7.81365 11.6378 7.94748 11.9035 7.94748C12.1682 7.94748 12.397 7.81663 12.4846 7.61241C12.8497 6.83125 14.9849 4.4263 17.6724 5.52865C18.6256 5.94203 19.2842 6.65678 19.5778 7.59556C19.9419 8.92294 19.5758 10.518 18.6236 11.7621ZM20.8125 7.27734L20.8095 7.26743C20.3897 5.89643 19.4872 4.91898 18.1291 4.36483C14.971 3.13658 12.6627 5.34525 12.0309 6.05207L11.9075 6.18986L11.7931 6.04315C10.7911 4.72865 9.44591 4.00597 8.00519 4.00597C7.41218 4.00597 6.81122 4.12692 6.21821 4.36582C4.71082 4.96657 3.60142 6.18193 3.17458 7.70064C2.74873 9.33533 3.11289 11.1445 4.14766 12.5393C5.19438 13.9281 7.54849 16.2796 11.1433 19.5281L11.3533 19.7175C11.406 19.7651 11.4389 19.7958 11.4508 19.8077C11.5831 19.9395 11.7781 20 11.9035 20C12.0338 20 12.2199 19.9366 12.3453 19.8751L12.3741 19.8513C12.3741 19.8493 12.4388 19.7908 12.5443 19.6947L12.6567 19.5926C16.2526 16.345 18.6096 13.9896 19.6623 12.5928C20.8533 10.9096 21.2841 8.92096 20.8125 7.27734Z" fill="#949494"/>
</svg>
