<svg width="24" height="24" viewBox="0 0 24 24" fill="none" xmlns="http://www.w3.org/2000/svg">
<g clip-path="url(#clip0_578_1749)">
<path fill-rule="evenodd" clip-rule="evenodd" d="M4.21411 8.62042L10.7272 3.65976C11.4795 3.08672 12.5206 3.08672 13.273 3.65976L19.786 8.62042C20.3098 9.01933 20.6173 9.64082 20.6173 10.3002V18.5204C20.6173 19.6855 19.6752 20.63 18.5131 20.63H5.48703C4.3249 20.63 3.38281 19.6855 3.38281 18.5204V10.3002C3.38281 9.64082 3.69037 9.01933 4.21411 8.62042Z" fill="white"/>
<path fill-rule="evenodd" clip-rule="evenodd" d="M13.273 3.42978L19.786 8.62025C20.3098 9.01916 20.6173 9.64065 20.6173 10.3001V18.5202C20.6173 19.6853 19.6752 20.6298 18.5131 20.6298H5.48703C4.3249 20.6298 3.38281 19.6853 3.38281 18.5202V10.3001C3.38281 9.64065 3.69037 9.01916 4.21411 8.62025L10.7272 3.42978C11.4795 2.85674 12.5206 2.85674 13.273 3.42978ZM4.95055 9.56216L11.4513 4.38151C11.7765 4.1395 12.2236 4.1395 12.5488 4.3815L19.0496 9.56216L19.0598 9.57031L19.0702 9.57822C19.2978 9.75157 19.4287 10.0192 19.4287 10.3001V18.5202C19.4287 19.0147 19.0266 19.4298 18.5131 19.4298H12.5943C12.5943 19.4298 12.5943 19.4298 12.5943 19.4298V14.4298C12.5943 14.0984 12.3282 13.8298 12 13.8298C11.6718 13.8298 11.4057 14.0984 11.4057 14.4298V19.4298C11.4057 19.4298 11.4057 19.4298 11.4057 19.4298H5.48703C4.97348 19.4298 4.5714 19.0147 4.5714 18.5202V10.3001C4.5714 10.0191 4.70235 9.75156 4.92994 9.57822L4.94033 9.57031L4.95055 9.56216Z" fill="#222222"/>
</g>
<defs>
<clipPath id="clip0_578_1749">
<rect width="23.7717" height="24" fill="white" transform="translate(0.114258)"/>
</clipPath>
</defs>
</svg>
