<svg width="72" height="73" viewBox="0 0 72 73" fill="none" xmlns="http://www.w3.org/2000/svg">
<path fill-rule="evenodd" clip-rule="evenodd" d="M34.1023 13.7211C22.7253 13.7211 13.5023 22.944 13.5023 34.3211C13.5023 45.6982 22.7253 54.9211 34.1023 54.9211C45.4794 54.9211 54.7023 45.6982 54.7023 34.3211C54.7023 22.944 45.4794 13.7211 34.1023 13.7211ZM9.90234 34.3211C9.90234 20.9558 20.7371 10.1211 34.1023 10.1211C47.4676 10.1211 58.3023 20.9558 58.3023 34.3211C58.3023 40.4382 56.0327 46.0253 52.2896 50.286L61.552 59.5484C62.255 60.2514 62.255 61.3911 61.552 62.094C60.8491 62.797 59.7094 62.797 59.0064 62.094L49.7201 52.8076C45.5051 56.3721 40.0547 58.5211 34.1023 58.5211C20.7371 58.5211 9.90234 47.6864 9.90234 34.3211Z" fill="white" stroke="white" stroke-width="3" stroke-linecap="round" stroke-linejoin="round"/>
</svg>
