<svg width="24" height="25" viewBox="0 0 24 25" fill="none" xmlns="http://www.w3.org/2000/svg">
<path d="M3 7.30005C3 6.19548 3.89543 5.30005 5 5.30005H19C20.1046 5.30005 21 6.19548 21 7.30005V18.3C21 19.4046 20.1046 20.3 19 20.3H5C3.89543 20.3 3 19.4046 3 18.3V7.30005Z" fill="white"/>
<path d="M4 7.80005C4 6.97162 4.67157 6.30005 5.5 6.30005H18.5C19.3284 6.30005 20 6.97162 20 7.80005V10.3H4V7.80005Z" fill="#70EBA5"/>
<path fill-rule="evenodd" clip-rule="evenodd" d="M19 6.50005H5C4.55817 6.50005 4.2 6.85822 4.2 7.30005V9.70007H19.8V7.30005C19.8 6.85822 19.4418 6.50005 19 6.50005ZM4.2 18.3V10.9001H19.8V18.3C19.8 18.7419 19.4418 19.1 19 19.1H5C4.55817 19.1 4.2 18.7419 4.2 18.3ZM5 5.30005C3.89543 5.30005 3 6.19548 3 7.30005V18.3C3 19.4046 3.89543 20.3 5 20.3H19C20.1046 20.3 21 19.4046 21 18.3V7.30005C21 6.19548 20.1046 5.30005 19 5.30005H5ZM5.8999 13.8001C5.8999 13.4687 6.16853 13.2001 6.4999 13.2001H10.4999C10.8313 13.2001 11.0999 13.4687 11.0999 13.8001C11.0999 14.1314 10.8313 14.4001 10.4999 14.4001H6.4999C6.16853 14.4001 5.8999 14.1314 5.8999 13.8001ZM5.8999 16.3001C5.8999 15.9687 6.16853 15.7001 6.4999 15.7001H8.9999C9.33127 15.7001 9.5999 15.9687 9.5999 16.3001C9.5999 16.6314 9.33127 16.9001 8.9999 16.9001H6.4999C6.16853 16.9001 5.8999 16.6314 5.8999 16.3001Z" fill="#222222"/>
</svg>
