<svg width="81" height="81" viewBox="0 0 81 81" fill="none" xmlns="http://www.w3.org/2000/svg">
<path fill-rule="evenodd" clip-rule="evenodd" d="M55.125 19.3717C55.6933 20.3189 55.3862 21.5474 54.439 22.1157L28.2514 37.8282C26.3094 38.9934 26.3094 41.808 28.2514 42.9732L54.439 58.6857C55.3862 59.254 55.6933 60.4825 55.125 61.4297C54.5567 62.3768 53.3282 62.684 52.381 62.1157L26.1934 46.4031C21.6621 43.6843 21.6621 37.1171 26.1935 34.3982L52.381 18.6857C53.3282 18.1174 54.5567 18.4245 55.125 19.3717Z" fill="white"/>
<path d="M53.4131 50.3984C58.9359 50.3984 63.4131 54.8756 63.4131 60.3984C63.4131 65.9213 58.9359 70.3984 53.4131 70.3984C47.8904 70.3983 43.4131 65.9212 43.4131 60.3984C43.4131 54.8757 47.8904 50.3986 53.4131 50.3984ZM20.0801 30.3984C25.6029 30.3984 30.0801 34.8756 30.0801 40.3984C30.0801 45.9213 25.6029 50.3984 20.0801 50.3984C14.5572 50.3984 10.0801 45.9213 10.0801 40.3984C10.0801 34.8756 14.5572 30.3984 20.0801 30.3984ZM53.4131 10.3984C58.9359 10.3984 63.4131 14.8756 63.4131 20.3984C63.4131 25.9213 58.9359 30.3984 53.4131 30.3984C47.8904 30.3983 43.4131 25.9212 43.4131 20.3984C43.4131 14.8757 47.8904 10.3986 53.4131 10.3984Z" fill="#4D94F2"/>
<path fill-rule="evenodd" clip-rule="evenodd" d="M53.4134 26.3984C56.7271 26.3984 59.4134 23.7121 59.4134 20.3984C59.4134 17.0847 56.7271 14.3984 53.4134 14.3984C50.0997 14.3984 47.4134 17.0847 47.4134 20.3984C47.4134 23.7121 50.0997 26.3984 53.4134 26.3984ZM53.4134 30.3984C58.9363 30.3984 63.4134 25.9213 63.4134 20.3984C63.4134 14.8756 58.9363 10.3984 53.4134 10.3984C47.8906 10.3984 43.4134 14.8756 43.4134 20.3984C43.4134 25.9213 47.8906 30.3984 53.4134 30.3984ZM53.4134 66.3984C56.7271 66.3984 59.4134 63.7121 59.4134 60.3984C59.4134 57.0847 56.7271 54.3984 53.4134 54.3984C50.0997 54.3984 47.4134 57.0847 47.4134 60.3984C47.4134 63.7121 50.0997 66.3984 53.4134 66.3984ZM53.4134 70.3984C58.9363 70.3984 63.4134 65.9213 63.4134 60.3984C63.4134 54.8756 58.9363 50.3984 53.4134 50.3984C47.8906 50.3984 43.4134 54.8756 43.4134 60.3984C43.4134 65.9213 47.8906 70.3984 53.4134 70.3984ZM26.0801 40.3984C26.0801 43.7121 23.3938 46.3984 20.0801 46.3984C16.7664 46.3984 14.0801 43.7121 14.0801 40.3984C14.0801 37.0847 16.7664 34.3984 20.0801 34.3984C23.3938 34.3984 26.0801 37.0847 26.0801 40.3984ZM30.0801 40.3984C30.0801 45.9213 25.6029 50.3984 20.0801 50.3984C14.5572 50.3984 10.0801 45.9213 10.0801 40.3984C10.0801 34.8756 14.5572 30.3984 20.0801 30.3984C25.6029 30.3984 30.0801 34.8756 30.0801 40.3984Z" fill="white"/>
</svg>
