<svg width="71" height="71" viewBox="0 0 71 71" fill="none" xmlns="http://www.w3.org/2000/svg">
<g clip-path="url(#clip0_639_9532)">
<path d="M35.9209 10.3574C42.9854 10.3576 48.7119 16.0849 48.7119 23.1494C48.7118 27.5786 46.4623 31.4832 43.0361 33.7812L40.4346 35.5254L43.4248 36.459C52.5741 39.3147 59.2118 47.8542 59.2119 57.9404C59.2119 59.3211 58.0926 60.4404 56.7119 60.4404H15.1289C13.7482 60.4404 12.6289 59.3211 12.6289 57.9404C12.6291 47.8541 19.2676 39.3146 28.417 36.459L31.4062 35.5254L28.8057 33.7812C25.3794 31.4832 23.129 27.5786 23.1289 23.1494C23.1289 16.0848 28.8563 10.3574 35.9209 10.3574ZM35.1289 35.9404C22.9788 35.9404 13.1291 45.7903 13.1289 57.9404C13.1289 59.045 14.0243 59.9404 15.1289 59.9404H56.7119C57.8165 59.9404 58.7119 59.045 58.7119 57.9404C58.7117 45.7903 48.8621 35.9404 36.7119 35.9404H35.1289ZM35.9209 10.8574C29.1324 10.8574 23.6289 16.3609 23.6289 23.1494C23.6291 29.9378 29.1325 35.4404 35.9209 35.4404C42.7091 35.4402 48.2117 29.9376 48.2119 23.1494C48.2119 16.361 42.7092 10.8576 35.9209 10.8574Z" fill="white" stroke="white" stroke-width="3"/>
</g>
<defs>
<clipPath id="clip0_639_9532">
<rect width="70" height="70" fill="white" transform="translate(0.919922 0.398438)"/>
</clipPath>
</defs>
</svg>
