<svg width="24" height="24" viewBox="0 0 24 24" fill="none" xmlns="http://www.w3.org/2000/svg">
<g clip-path="url(#clip0_578_1743)">
<path fill-rule="evenodd" clip-rule="evenodd" d="M10.0785 5.5637C10.3195 5.79122 10.3303 6.17097 10.1028 6.41188L5.39186 11.3999L19.9999 11.3999C20.3313 11.3999 20.5999 11.6685 20.5999 11.9999C20.5999 12.3313 20.3313 12.5999 19.9999 12.5999L5.39186 12.5999L10.1028 17.5879C10.3303 17.8288 10.3195 18.2086 10.0785 18.4361C9.83763 18.6636 9.45789 18.6528 9.23036 18.4119L3.56369 12.4119C3.3453 12.1806 3.3453 11.8192 3.56369 11.5879L9.23036 5.58793C9.45789 5.34702 9.83763 5.33617 10.0785 5.5637Z" fill="#222222"/>
</g>
<defs>
<clipPath id="clip0_578_1743">
<rect width="24" height="24" fill="white"/>
</clipPath>
</defs>
</svg>
