<svg width="61" height="16" viewBox="0 0 61 16" fill="none" xmlns="http://www.w3.org/2000/svg">
<path d="M0 0.3632V15.636H11.6737V11.7224H4.79164V0.3632H0Z" fill="#222222"/>
<path d="M27.7273 9.732C27.7273 13.968 25.3973 15.9992 20.6495 15.9992C15.9025 15.9992 13.549 13.968 13.549 9.732V0.3632H18.3406V8.684C18.3406 10.2456 18.3406 12.1912 20.6706 12.1912C22.9357 12.1912 22.9357 10.2448 22.9357 8.684V0.3632H27.7265V9.732H27.7273Z" fill="#222222"/>
<path d="M34.9936 10.5032C34.9936 10.888 35.0594 11.2296 35.1682 11.508C35.5166 12.428 36.5626 12.62 37.4552 12.62C38.2389 12.62 39.4376 12.364 39.4376 11.2296C39.4376 10.4384 38.7619 10.2248 36.0818 9.476C33.6211 8.7912 30.811 8.1288 30.811 5.048C30.811 1.5184 33.8818 0 37.084 0C40.4585 0 43.4431 1.2624 43.5755 4.984H39.0437C39.1306 4.4064 38.8667 4.0208 38.4777 3.7656C38.087 3.4872 37.5421 3.38 37.0629 3.38C36.4083 3.38 35.3412 3.5504 35.3412 4.4064C35.4281 5.4984 37.6509 5.7328 39.8502 6.332C42.0503 6.9304 44.2293 7.936 44.2293 10.7384C44.2293 14.7168 40.5031 16 37.041 16C35.277 16 30.2466 15.3792 30.2019 10.5032H34.9936Z" fill="#222222"/>
<path d="M56.2092 0.3632V5.668H51.7205V0.3632H46.9288V15.636H51.7205V9.5824H56.2092V15.636H61V0.3632H56.2092Z" fill="#222222"/>
</svg>
