<svg width="98" height="61" viewBox="0 0 98 61" fill="none" xmlns="http://www.w3.org/2000/svg">
<path d="M72.6553 2.16797C85.5815 2.16803 96.0605 12.647 96.0605 25.5732C96.0605 38.4995 85.5815 48.9785 72.6553 48.9785H58.3379L50.373 57.2393L49.2285 58.4258L48.1064 57.2178L40.4561 48.9785H25.8447C12.9184 48.9785 2.43945 38.4995 2.43945 25.5732C2.43951 12.647 12.9185 2.16803 25.8447 2.16797H72.6553Z" fill="#F5F6FF" stroke="#B2BAFF" stroke-width="3.12069"/>
<path d="M30.4657 17.4337C30.4425 24.081 28.8212 29.5239 21.1085 33.5772L19.3019 31.0757C22.4982 29.3734 24.49 27.5436 25.6944 25.3317L19.8578 25.8876L19.4409 23.0619L26.7135 22.6682C26.922 21.8575 27.0609 20.989 27.1304 20.0741H20.5989V17.4337H30.4657ZM37.5299 15.4418V36.704H34.2178V26.2119H30.4425V23.502H34.2178V15.4418H37.5299ZM50.6513 17.2716V22.6682H54.2876V15.4418H57.5765V36.7503H54.2876V25.3317H50.6513V31.5853H40.3213V17.2716H50.6513ZM43.6334 19.8425V28.9912H47.3855V19.8425H43.6334ZM70.9527 18.1285C70.9295 21.0932 73.2456 24.4516 78.4106 25.3086L76.9515 28.0648C73.153 27.3468 70.5358 25.3317 69.1692 22.7145C67.7911 25.3086 65.1623 27.3352 61.387 28.0648L59.9742 25.3086C65.0234 24.4284 67.3627 21.0469 67.3858 18.1285V16.6462H70.9527V18.1285ZM79.0128 31.4463V34.1794H59.5804V31.4463H79.0128Z" fill="#4154FF"/>
</svg>
