<svg width="98" height="61" viewBox="0 0 98 61" fill="none" xmlns="http://www.w3.org/2000/svg">
<path d="M72.6553 2.16797C85.5815 2.16803 96.0605 12.647 96.0605 25.5732C96.0605 38.4995 85.5815 48.9785 72.6553 48.9785H58.3379L50.373 57.2393L49.2285 58.4258L48.1064 57.2178L40.4561 48.9785H25.8447C12.9184 48.9785 2.43945 38.4995 2.43945 25.5732C2.43951 12.647 12.9185 2.16803 25.8447 2.16797H72.6553Z" fill="#F5F6FF" stroke="#B2BAFF" stroke-width="3.12069"/>
<path d="M37.976 21.0006C37.976 24.3821 39.4583 28.0648 43.1641 29.5703L41.3807 32.1875C38.914 31.1684 37.2811 29.1765 36.3315 26.7446C35.4051 29.4081 33.7259 31.6085 31.236 32.7202L29.3368 30.103C33.0194 28.4817 34.5713 24.5906 34.5713 21.0006V20.1667H30.2169V17.4569H42.2377V20.1667H37.976V21.0006ZM47.4027 15.4418V36.704H44.0443V15.4418H47.4027ZM66.9397 24.8222V27.4394H60.8946V31.6548H69.0011V34.3647H49.5687V31.6548H57.6057V27.4394H51.7922V16.8778H66.8008V19.5182H55.1274V24.8222H66.9397Z" fill="#4154FF"/>
</svg>
