<svg width="98" height="61" viewBox="0 0 98 61" fill="none" xmlns="http://www.w3.org/2000/svg">
<path d="M72.6553 2.16797C85.5815 2.16803 96.0605 12.647 96.0605 25.5732C96.0605 38.4995 85.5815 48.9785 72.6553 48.9785H58.3379L50.373 57.2393L49.2285 58.4258L48.1064 57.2178L40.4561 48.9785H25.8447C12.9184 48.9785 2.43945 38.4995 2.43945 25.5732C2.43951 12.647 12.9185 2.16803 25.8447 2.16797H72.6553Z" fill="#F5F6FF" stroke="#B2BAFF" stroke-width="3.12069"/>
<path d="M38.9427 27.5784V30.1956H30.8131V36.704H27.501V30.1956H19.5103V27.5784H38.9427ZM24.9996 16.2525V18.5454H33.3608V16.2525H36.6961V25.7023H21.7107V16.2525H24.9996ZM24.9996 23.0388H33.3608V21.1395H24.9996V23.0388ZM58.9894 25.3317V27.949H39.557V25.3317H47.6403V23.7336H41.8731V16.3683H56.6964V18.9624H45.2083V21.1164H56.789V23.7336H50.9292V25.3317H58.9894ZM49.2153 28.8523C53.8475 28.8523 56.6269 30.2651 56.6269 32.8129C56.6269 35.3143 53.8475 36.7503 49.2153 36.7503C44.5598 36.7503 41.7341 35.3143 41.7341 32.8129C41.7341 30.2651 44.5598 28.8523 49.2153 28.8523ZM49.2153 31.3768C46.4127 31.3768 45.1157 31.8401 45.1389 32.8129C45.1157 33.8088 46.4127 34.2025 49.2153 34.2025C51.9483 34.2025 53.2917 33.8088 53.2917 32.8129C53.2917 31.8401 51.9483 31.3768 49.2153 31.3768ZM67.6406 18.9855C67.6406 21.6259 68.9608 24.2431 72.5045 25.3549L70.7442 27.9721C68.4512 27.2194 66.9226 25.7834 66.0193 23.942C65.0465 25.9455 63.4136 27.5321 60.9933 28.3195L59.1404 25.7023C62.8925 24.5674 64.259 21.7186 64.2822 18.9624V16.762H67.6406V18.9855ZM76.5114 15.465V21.4869H79.2676V24.2895H76.5114V30.9831H73.1762V15.465H76.5114ZM77.2294 33.693V36.3565H62.5682V29.4545H65.9498V33.693H77.2294Z" fill="#4154FF"/>
</svg>
